<svg viewBox="0 0 177 176" fill="none" xmlns="http://www.w3.org/2000/svg">
    <path d="M143.554 47.3937C159.154 64.7937 164.554 92.2937 157.654 114.694C150.654 137.094 131.254 154.294 112.154 158.194C93.0536 162.094 74.1536 152.594 52.5536 144.094C30.8536 135.494 6.45356 127.894 1.15356 113.294C-4.14644 98.7937 9.65355 77.3937 25.4536 59.9937C41.1536 42.4937 58.9536 28.8937 80.6536 25.6937C102.354 22.5937 128.054 29.8937 143.554 47.3937Z" fill="#FFDD40" />
    <path d="M88.5007 140.774C115.304 140.774 137.033 121.624 137.033 98C137.033 74.3764 115.304 55.2257 88.5007 55.2257C61.697 55.2257 39.9683 74.3764 39.9683 98C39.9683 121.624 61.697 140.774 88.5007 140.774Z" fill="white" />
    <path d="M48.533 90.4514C21.7716 90.4514 0.000610352 109.639 0.000610352 133.226C0.000610352 156.812 21.7716 176 48.5324 176C75.2932 176 97.0642 156.812 97.0642 133.226C97.0642 109.639 75.2938 90.4514 48.533 90.4514ZM48.533 170.967C24.9209 170.967 5.71088 154.036 5.71088 133.225C5.71088 112.414 24.9209 95.4831 48.533 95.4831C72.1451 95.4831 91.3551 112.415 91.3551 133.226C91.3551 154.037 72.1451 170.967 48.533 170.967Z" fill="#0B3249" />
    <path d="M74.8455 43.9712L73.6067 39.0597C47.7619 44.1118 27.3588 62.0947 21.626 84.8732L27.2016 85.9629C32.4545 65.0862 51.156 48.603 74.8455 43.9712Z" fill="#0093F7" />
    <path d="M102.155 152.026L103.394 156.94C129.239 151.885 149.639 133.905 155.375 111.126L149.799 110.034C144.546 130.913 125.844 147.396 102.155 152.026Z" fill="#0093F7" />
    <path d="M66.8333 117.5V111H32V117.5H43.0833C47.2063 117.5 50.6865 120.224 51.9975 124H32V130.5H51.9975C51.3475 132.396 50.1416 134.038 48.5455 135.202C46.9493 136.366 45.0413 136.994 43.0833 137H32V144.845L49.689 163H58.6443L39.6443 143.5H43.0833C46.7312 143.495 50.2658 142.199 53.0912 139.831C55.9166 137.463 57.86 134.167 58.5937 130.5H66.8333V124H58.5937C58.1083 121.635 57.108 119.413 55.6677 117.5H66.8333Z" fill="#0B3249" />
    <path d="M152.329 15.4512H94.0326C90.3804 15.4512 87.4199 12.3331 87.4199 8.48676C87.4199 4.64026 90.3806 1.52234 94.0326 1.52234H146.451L152.329 15.4512Z" fill="#36A9E1" />
    <path d="M87.671 10.808L92.0795 15.4511H95.0184V97.4778H92.0795L87.671 94.3825V10.808Z" fill="#A5C6E3" />
    <path d="M152.331 15.4523H95.0195V97.4788H152.331V15.4523Z" fill="#0B3249" />
    <path d="M140.575 15.4523H128.818V54.1439H140.575V15.4523Z" fill="#A5C6E3" />
    <path d="M86.2256 91.2873C86.2256 95.5402 89.5108 99 93.5488 99H153.775V13.9292H143.512V16.9735H150.884V95.9561H93.549C91.1046 95.9561 89.1163 93.8617 89.1163 91.2877V14.9919C90.5164 16.2277 92.3187 16.9733 94.2837 16.9733H125.878V13.9292H94.2837C91.4343 13.9292 89.1163 11.4879 89.1163 8.48693C89.1163 5.48599 91.4343 3.04425 94.2837 3.04425H147.921V0H94.2837C90.0884 0 86.6073 3.37509 86.2349 7.69319L86.2256 91.2873Z" fill="#1D1D1B" />
    <path d="M146.45 4.64294H92.079V7.68719H146.45V4.64294Z" fill="#1D1D1B" />
    <path d="M149.391 9.28589H92.079V12.3301H149.391V9.28589Z" fill="#1D1D1B" />
    <path d="M142.018 58.1536L134.695 54.2972L127.372 58.1536V13.9292H142.018V58.1536ZM130.263 16.9733V53.228L134.695 50.8937L139.128 53.228V16.9733H130.263Z" fill="#1D1D1B" />
    <path d="M96.4648 18.5472H93.5743V94.384H96.4648V18.5472Z" fill="#1D1D1B" />
    <path d="M115.592 21.6685H100.897V24.7127H115.592V21.6685Z" fill="#1D1D1B" />
    <path d="M133.226 88.2183H130.287V91.2625H133.226V88.2183Z" fill="white" />
    <path d="M139.105 88.2183H136.166V91.2625H139.105V88.2183Z" fill="white" />
    <path d="M144.982 88.2183H142.043V91.2625H144.982V88.2183Z" fill="white" />
    <path d="M109.714 27.8583H100.897V30.9025H109.714V27.8583Z" fill="#1D1D1B" />
    <path d="M109.714 34.0481H100.897V37.0923H109.714V34.0481Z" fill="white" />
</svg>