<svg viewBox="0 0 169 131" fill="none" xmlns="http://www.w3.org/2000/svg">
    <path d="M167.585 12.1524C172.785 20.8524 159.085 42.2524 153.085 64.2524C147.085 86.1524 148.885 108.652 139.085 117.252C129.185 125.852 107.884 120.452 91.4845 110.352C75.0845 100.352 63.6845 85.6524 60.1845 69.3524C56.6845 53.0524 61.0845 35.2524 71.4845 25.3524C81.8845 15.5524 98.2845 13.6524 118.485 10.6524C138.585 7.65242 162.485 3.55242 167.585 12.1524Z" fill="#FFDD40" />
    <path d="M108.153 90.3166C110.587 90.3166 112.778 88.8382 113.265 86.7261L124.951 39.205C125.438 36.6705 123.734 34.3472 121.056 33.9248C118.134 33.5024 115.456 34.9809 114.969 37.3041L103.284 84.8253C102.797 87.3597 104.501 89.683 107.179 90.1054C107.422 90.3166 107.666 90.3166 108.153 90.3166Z" fill="black" />
    <path d="M67.74 90.3167C67.9834 90.3167 68.4703 90.3167 68.7138 90.3167C71.6352 89.8942 73.3393 87.3598 72.609 85.0365L60.9234 37.5154C60.4365 34.9809 57.515 33.5025 54.8371 34.1361C51.9157 34.5585 50.2115 37.093 50.9419 39.4162L62.6275 86.7262C63.1144 88.8382 65.3055 90.3167 67.74 90.3167Z" fill="black" />
    <path d="M87.9464 89.4717C90.8678 89.4717 93.0589 87.3597 93.0589 85.0364V37.5153C93.0589 34.9808 90.6244 33.08 87.9464 33.08C85.2685 33.08 82.834 35.192 82.834 37.5153V85.0364C82.5905 87.3597 85.025 89.4717 87.9464 89.4717Z" fill="black" />
    <path d="M24.8928 38.7825C24.4059 37.5153 24.6493 35.8256 25.6231 34.7696C26.5969 33.7136 28.0576 32.8688 29.7618 32.8688H145.888C147.592 32.8688 149.052 33.5024 150.026 34.7696C151 36.0369 151.243 37.5153 150.757 38.7825L138.827 71.9417C138.827 72.5753 138.584 73.209 138.097 73.8426L132.985 88.2045C132.254 90.1054 130.307 91.3726 128.116 91.3726H47.7771C45.586 91.3726 43.395 90.1054 42.9081 88.2045L37.7956 73.8426C37.5522 73.209 37.3087 72.5753 37.0653 71.9417L24.8928 38.7825ZM132.498 59.0582H43.1516L46.073 67.084H129.576L132.498 59.0582ZM37.0653 41.9506L39.9867 49.9764H135.906L138.827 41.9506H37.0653ZM124.22 82.502L126.412 76.1658H49.2378L51.4288 82.502H124.22Z" fill="#18456D" />
    <path d="M126.412 107.635H92.3285C92.3285 103.834 97.1975 100.666 102.553 98.5536H120.812C124.464 100.666 126.412 104.045 126.412 107.635Z" fill="black" />
    <path d="M100.362 107.635C100.362 113.972 106.205 119.674 113.509 119.674C120.812 119.674 126.655 113.76 126.655 107.635C126.655 101.299 120.812 96.2303 113.509 96.2303C106.205 96.4416 100.362 101.51 100.362 107.635Z" fill="#0E3451" />
    <path d="M100.362 107.635C100.362 113.972 106.205 119.04 113.509 119.04C120.812 119.04 126.655 113.972 126.655 107.635C126.655 101.299 120.812 95.3855 113.509 95.3855C106.205 95.5967 100.362 101.51 100.362 107.635Z" fill="#2689C6" />
    <path d="M113.509 119.041C106.248 119.041 100.362 113.934 100.362 107.635C100.362 101.337 106.248 96.2303 113.509 96.2303C120.769 96.2303 126.655 101.337 126.655 107.635C126.655 113.934 120.769 119.041 113.509 119.041Z" fill="#1B5A89" />
    <path d="M122.76 99.6097C117.647 95.1744 109.37 95.1744 104.258 99.6097C99.1451 104.045 99.1451 111.226 104.258 115.661" fill="#18456D" />
    <path d="M113.509 114.394C117.891 114.394 121.299 111.437 121.299 107.636C121.299 103.834 117.891 100.877 113.509 100.877C109.127 100.877 105.718 103.834 105.718 107.636C105.718 111.437 109.127 114.394 113.509 114.394Z" fill="#0B3249" />
    <path d="M107.909 102.989C104.988 105.523 104.988 109.959 107.909 112.493C110.831 115.028 115.943 115.028 118.865 112.493" fill="black" />
    <path d="M78.4519 107.635H44.3689C44.3689 103.834 49.2379 100.666 54.5938 98.5536H73.096C76.2609 100.666 78.4519 104.045 78.4519 107.635Z" fill="black" />
    <path d="M52.4027 107.635C52.4027 113.972 58.2455 119.674 65.549 119.674C72.8525 119.674 78.6953 113.76 78.6953 107.635C78.6953 101.299 72.8525 96.2303 65.549 96.2303C58.2455 96.2303 52.4027 101.51 52.4027 107.635Z" fill="#0E3451" />
    <path d="M52.4027 107.635C52.4027 113.972 58.2455 119.04 65.549 119.04C72.8525 119.04 78.6953 113.972 78.6953 107.635C78.6953 101.299 72.8525 95.3855 65.549 95.3855C58.2455 95.3855 52.4027 101.51 52.4027 107.635Z" fill="#2689C6" />
    <path d="M65.3056 119.041C58.0451 119.041 52.1593 113.934 52.1593 107.635C52.1593 101.337 58.0451 96.2303 65.3056 96.2303C72.5661 96.2303 78.4519 101.337 78.4519 107.635C78.4519 113.934 72.5661 119.041 65.3056 119.041Z" fill="#1B5A89" />
    <path d="M74.5566 99.6097C69.4441 95.1744 61.1668 95.1744 56.0544 99.6097C50.9419 104.045 50.9419 111.226 56.0544 115.661" fill="#18456D" />
    <path d="M65.3055 114.394C69.6876 114.394 73.0959 111.437 73.0959 107.636C73.0959 103.834 69.6876 100.877 65.3055 100.877C60.9234 100.877 57.5151 103.834 57.5151 107.636C57.7586 111.437 61.1669 114.394 65.3055 114.394Z" fill="#0B3249" />
    <path d="M59.9496 102.989C57.0282 105.523 57.0282 109.959 59.9496 112.493C62.871 115.028 67.9834 115.028 70.9048 112.493" fill="black" />
    <path d="M0.0608444 22.731C0.0608444 25.2654 2.49534 27.1663 5.1733 27.1663H27.0838C30.0052 27.1663 32.1963 25.0542 32.1963 22.731V22.5198C32.1963 19.9853 29.7618 18.0845 27.0838 18.0845H5.1733C2.25189 18.0845 0.0608444 20.1965 0.0608444 22.5198V22.731Z" fill="#1B5A89" />
    <path d="M27.0839 17.8732C29.2749 17.8732 31.2225 19.1404 31.9529 21.0412C31.2225 22.9421 29.2749 24.2093 27.0839 24.2093H5.17334C2.98229 24.2093 1.03469 22.9421 0.304338 21.0412C1.03469 19.1404 2.98229 17.8732 5.17334 17.8732H27.0839Z" fill="#18456D" />
    <g clip-path="url(#clip0)">
        <path d="M99.2075 34.0798L67.7745 23.2808C65.8053 22.6043 64.8597 20.162 65.6623 17.8259C66.4649 15.4896 68.7119 14.1443 70.681 14.8208L98.9446 24.5309L99.2075 34.0798Z" fill="#36A9E1" />
        <path d="M65.3132 19.2822L66.7214 22.919L68.306 23.4634L51.1897 73.2846L49.605 72.7402L47.8739 70.0435L65.3132 19.2822Z" fill="#A5C6E3" />
        <path d="M99.2082 34.0807L68.3064 23.4642L51.1901 73.2853L82.0919 83.9018L99.2082 34.0807Z" fill="#2474ED" />
        <path d="M47.7405 67.8958C46.853 70.4789 47.9024 73.1889 50.0797 73.9369L82.5528 85.0932L100.304 33.4231L94.7711 31.5221L94.1358 33.3711L98.1106 34.7367L81.6295 82.709L50.7149 72.0882C49.3969 71.6354 48.7619 69.9949 49.299 68.4315L65.2195 22.0912C65.7165 23.1011 66.5328 23.8878 67.5923 24.2518L84.6278 30.1045L85.263 28.2556L68.2275 22.4029C66.6911 21.8751 65.9507 19.9629 66.5769 18.1402C67.2031 16.3175 68.9624 15.2638 70.4988 15.7917L99.4195 25.7275L100.055 23.8785L71.134 13.9426C68.872 13.1655 66.2907 14.5706 65.1889 17.1244L47.7405 67.8958Z" fill="#1D1D1B" />
        <path d="M98.2927 26.426L68.9764 16.3542L68.3412 18.2033L97.6575 28.275L98.2927 26.426Z" fill="#1D1D1B" />
        <path d="M98.9094 29.7907L68.0076 19.1742L67.3723 21.0232L98.2741 31.6397L98.9094 29.7907Z" fill="#1D1D1B" />
        <path d="M68.4399 25.6119L66.8813 25.0764L51.0567 71.1379L52.6152 71.6734L68.4399 25.6119Z" fill="#1D1D1B" />
        <path d="M78.1016 31.0507L70.1782 28.3286L69.543 30.1776L77.4664 32.8997L78.1016 31.0507Z" fill="#1D1D1B" />
        <path d="M72.6114 38.091L67.8574 36.4578L67.2222 38.3068L71.9762 39.94L72.6114 38.091Z" fill="#1D1D1B" />
        <path d="M80.1423 71.0501L75.3883 69.4169L74.7531 71.2659L79.5071 72.8991L80.1423 71.0501Z" fill="#1D1D1B" />
        <path d="M78.7406 75.551L73.9866 73.9177L73.3513 75.7667L78.1053 77.4L78.7406 75.551Z" fill="#1D1D1B" />
        <path d="M74.0132 33.5902L69.2592 31.9569L68.624 33.8059L73.378 35.4392L74.0132 33.5902Z" fill="white" />
    </g>
    <g clip-path="url(#clip1)">
        <path d="M120.437 19.6446L87.7628 29.116C85.7158 29.7093 83.4563 28.1196 82.7158 25.5653C81.9754 23.0109 83.0346 20.4593 85.0815 19.866L114.461 11.3496L120.437 19.6446Z" fill="#36A9E1" />
        <path d="M83.3034 27.066L86.6681 29.4333L88.3153 28.9558L104.106 83.4289L102.458 83.9063L99.3916 82.567L83.3034 27.066Z" fill="#A5C6E3" />
        <path d="M120.438 19.645L88.3162 28.9563L104.106 83.4293L136.229 74.1179L120.438 19.645Z" fill="white" />
        <path d="M113.849 21.555L107.26 23.4651L114.708 49.1598L121.297 47.2497L113.849 21.555Z" fill="#A5C6E3" />
        <path d="M123.738 71.0722L122.09 71.5497L122.676 73.5713L124.324 73.0938L123.738 71.0722Z" fill="white" />
        <path d="M127.033 70.117L125.385 70.5945L125.971 72.6161L127.619 72.1386L127.033 70.117Z" fill="white" />
        <path d="M130.327 69.1622L128.68 69.6396L129.266 71.6613L130.913 71.1838L130.327 69.1622Z" fill="white" />
        <path d="M98.9401 34.8076L93.9984 36.2401L94.5844 38.2618L99.5261 36.8293L98.9401 34.8076Z" fill="#1D1D1B" />
        <path d="M100.132 38.9182L95.1899 40.3507L95.776 42.3724L100.718 40.9399L100.132 38.9182Z" fill="white" />
        <path d="M97.9856 80.7463C98.8043 83.5707 101.312 85.3345 103.575 84.6785L137.33 74.8937L120.954 18.3991L115.202 20.0664L115.788 22.088L119.92 20.8903L135.124 73.3419L102.989 82.6571C101.619 83.0542 100.101 81.9863 99.6058 80.277L84.9188 29.6097C85.9414 30.2029 87.0951 30.4053 88.1965 30.086L105.905 24.9529L105.319 22.9313L87.6105 28.0645C86.0135 28.5274 84.2443 27.2827 83.6666 25.2898C83.0889 23.297 83.9181 21.2988 85.5151 20.8359L115.578 12.1215L114.992 10.0998L84.9291 18.8142C82.5777 19.4958 81.2763 22.3028 81.8989 25.2309L97.9856 80.7463Z" fill="#1D1D1B" />
        <path d="M115.061 13.4222L84.5872 22.2557L85.1732 24.2774L115.647 15.4438L115.061 13.4222Z" fill="#1D1D1B" />
        <path d="M117.603 16.0278L85.4809 25.3391L86.0669 27.3608L118.189 18.0494L117.603 16.0278Z" fill="#1D1D1B" />
        <path d="M122.878 49.678L118.031 48.3068L114.669 52.0576L106.156 22.6886L114.365 20.309L122.878 49.678V49.678ZM108.362 24.2405L115.341 48.3169L117.376 46.0466L120.31 46.8765L113.331 22.8002L108.362 24.2405Z" fill="#1D1D1B" />
        <path d="M89.7219 30.7768L88.1019 31.2465L102.701 81.6088L104.321 81.1392L89.7219 30.7768Z" fill="#1D1D1B" />
        <path d="M101.043 29.742L92.8068 32.1295L93.3928 34.1512L101.629 31.7637L101.043 29.742Z" fill="#1D1D1B" />
    </g>
    <path d="M30.0052 34.9808H145.888C147.592 34.9808 149.052 35.6144 150.026 36.8817C150.513 37.3041 150.757 37.9377 150.757 38.5713V38.7825L138.827 71.9417C138.827 72.5753 138.584 73.209 138.097 73.8426L132.985 88.2045C132.254 90.1054 130.307 91.3726 128.116 91.3726H47.7771C45.586 91.3726 43.395 90.1054 42.9081 88.2045L37.7956 73.8426C37.5522 73.209 37.3087 72.5753 37.0653 71.9417L25.1362 38.7825V38.5713C25.3797 37.9377 25.6231 37.5153 25.8666 36.8817C26.5969 35.6144 28.3011 34.9808 30.0052 34.9808ZM49.2378 78.2779L51.4288 84.614H124.22L126.412 78.2779H125.681L126.412 76.1658H49.2378L49.9681 78.2779H49.2378ZM43.1515 61.1703L46.0729 69.1961H129.576L132.498 61.1703H131.767L132.498 59.0582H43.1515L43.8819 61.1703H43.1515ZM37.0653 44.0627L39.9867 52.0885H135.906L138.827 44.0627H138.097L138.827 41.9506H37.0653L37.7956 44.0627H37.0653Z" fill="#0B3249" />
    <path d="M44.8557 107.635H130.794C133.715 107.635 135.906 105.523 135.906 103.2C135.906 100.666 133.472 98.7648 130.794 98.7648H44.8557C41.9343 98.7648 39.7432 100.877 39.7432 103.2C39.7432 105.735 41.9343 107.635 44.8557 107.635Z" fill="#0B3249" />
    <defs>
        <clipPath id="clip0">
            <rect width="53.5916" height="63.58" fill="white" transform="translate(59.6581 10) rotate(18.9604)" />
        </clipPath>
        <clipPath id="clip1">
            <rect width="54.8542" height="68.4513" fill="white" transform="translate(73 22.2721) rotate(-16.1654)" />
        </clipPath>
    </defs>
</svg>